<?xml version="1.0" encoding="UTF-8" standalone="no"?>
<!DOCTYPE svg PUBLIC "-//W3C//DTD SVG 1.1//EN" "http://www.w3.org/Graphics/SVG/1.1/DTD/svg11.dtd">
<!-- Generated by graphviz version 2.26.3 (20100126.1600)
 -->
<!-- Title: G Pages: 1 -->
<svg xmlns="http://www.w3.org/2000/svg" xmlns:xlink="http://www.w3.org/1999/xlink" width="538pt" height="130pt">
<g id="viewport" class="graph" transform="scale(1 1) rotate(0) translate(4 126)">
<title>G</title>
<polygon fill="white" stroke="white" points="-4,5 -4,-126 535,-126 535,5 -4,5"/>
<g id="graph2" class="cluster"><title>cluster_default</title>
<polyline fill="none" stroke="none" points="406,-8 510,-8 "/>
<path fill="none" stroke="none" d="M510,-8C516,-8 522,-14 522,-20"/>
<polyline fill="none" stroke="none" points="522,-20 522,-102 "/>
<path fill="none" stroke="none" d="M522,-102C522,-108 516,-114 510,-114"/>
<polyline fill="none" stroke="none" points="510,-114 406,-114 "/>
<path fill="none" stroke="none" d="M406,-114C400,-114 394,-108 394,-102"/>
<polyline fill="none" stroke="none" points="394,-102 394,-20 "/>
<path fill="none" stroke="none" d="M394,-20C394,-14 400,-8 406,-8"/>
</g>
<!-- _HelloWorldTest -->
<g id="node2" class="node"><title>_HelloWorldTest</title>
<a xlink:href="db_HelloWorldTest.html" xlink:title="HelloWorldTest" target="_parent">
<polygon fill="none" stroke="black" points="513,-106 403,-106 403,-70 513,-70 513,-106"/>
<text text-anchor="middle" x="458" y="-84.6" font-family="Courier New" font-size="11.00">HelloWorldTest</text>
</a>
</g>
<!-- _PHPUnit_Framework_TestCase -->
<g id="node5" class="node"><title>_PHPUnit_Framework_TestCase</title>
<ellipse fill="none" stroke="black" cx="165" cy="-88" rx="164.187" ry="18"/>
<text text-anchor="middle" x="165" y="-83.9" font-family="Times Roman,serif" font-size="14.00" fill="gray">\\PHPUnit_Framework_TestCase</text>
</g>
<!-- _HelloWorldTest&#45;&gt;_PHPUnit_Framework_TestCase -->
<g id="edge3" class="edge"><title>_HelloWorldTest-&gt;_PHPUnit_Framework_TestCase</title>
<path fill="none" stroke="black" d="M402.199,-88C383.758,-88 362.156,-88 339.633,-88"/>
<polygon fill="none" stroke="black" points="339.58,-84.5001 329.58,-88 339.58,-91.5001 339.58,-84.5001"/>
</g>
<!-- _HelloWorld -->
<g id="node3" class="node"><title>_HelloWorld</title>
<a xlink:href="db_HelloWorld.html" xlink:title="HelloWorld" target="_parent">
<polygon fill="none" stroke="black" points="500,-52 416,-52 416,-16 500,-16 500,-52"/>
<text text-anchor="middle" x="458" y="-30.6" font-family="Courier New" font-size="11.00">HelloWorld</text>
</a>
</g>
</g>
<script xlink:href="js/SVGPan.js"/></svg>
